<?xml version="1.0" standalone="no"?>
<!DOCTYPE svg PUBLIC "-//W3C//DTD SVG 20010904//EN"
 "http://www.w3.org/TR/2001/REC-SVG-20010904/DTD/svg10.dtd">
<svg version="1.0" xmlns="http://www.w3.org/2000/svg"
 width="446.000000pt" height="446.000000pt" viewBox="0 0 446.000000 446.000000"
 preserveAspectRatio="xMidYMid meet">
<metadata>
Created by potrace 1.14, written by Peter Selinger 2001-2017
</metadata>
<g transform="translate(0.000000,446.000000) scale(0.100000,-0.100000)"
fill="#000000" stroke="none">
<path d="M2585 4345 c-178 -71 -281 -118 -283 -127 -2 -10 51 -59 140 -129 79
-62 148 -117 153 -121 121 -98 189 -146 200 -142 8 3 18 38 25 90 8 56 17 87
27 91 17 7 109 -26 218 -78 428 -202 777 -588 932 -1029 66 -189 95 -330 108
-525 6 -94 18 -103 126 -100 56 1 84 6 91 16 9 13 4 241 -6 257 -2 4 -7 30
-10 57 -14 103 -57 266 -111 414 -42 116 -181 376 -241 451 -7 8 -40 50 -73
93 -70 88 -212 234 -286 292 -27 22 -56 46 -64 53 -7 7 -63 46 -125 86 -118
79 -319 180 -426 216 -105 35 -111 39 -106 74 5 34 18 128 18 136 1 19 -4 28
-14 32 -7 3 -139 -46 -293 -107z"/>
<path d="M1530 4239 c-112 -19 -112 -19 -688 -593 -299 -297 -556 -561 -572
-586 -65 -102 -71 -240 -13 -354 34 -67 2376 -2412 2444 -2447 106 -54 219
-57 328 -7 35 16 175 149 589 562 299 298 556 561 571 586 69 109 73 240 11
360 -35 69 -2377 2408 -2445 2442 -73 37 -151 50 -225 37z m1372 -1267 c621
-620 1128 -1135 1128 -1144 0 -9 -311 -327 -691 -708 -586 -586 -694 -690
-713 -684 -30 8 -2266 2246 -2266 2267 0 22 1375 1397 1398 1397 9 0 513 -496
1144 -1128z m-1844 631 c5 -31 -170 -206 -201 -201 -14 2 -23 11 -25 26 -5 34
163 203 198 199 17 -1 26 -9 28 -24z m2635 -2420 c15 -18 20 -35 18 -64 -1
-15 -272 -294 -343 -354 -46 -39 -108 -11 -108 48 0 25 28 57 179 208 150 150
185 179 209 179 16 0 36 -8 45 -17z"/>
<path d="M143 2172 c-26 -27 -8 -250 37 -451 149 -671 657 -1241 1313 -1475
103 -37 97 -27 84 -140 -4 -33 -9 -61 -12 -64 -2 -3 0 -13 6 -23 11 -22 -15
-30 349 114 155 62 236 99 238 109 2 10 -62 67 -185 164 -103 82 -195 154
-203 161 -70 57 -93 71 -106 66 -8 -3 -14 -13 -15 -22 0 -9 -2 -25 -4 -36 -2
-11 -7 -40 -10 -65 -9 -65 -16 -68 -93 -41 -220 76 -465 234 -651 420 -320
319 -503 724 -536 1187 -4 49 -11 85 -20 94 -21 20 -172 22 -192 2z"/>
</g>
</svg>
